<?xml version="1.0" ?><!DOCTYPE svg  PUBLIC '-//W3C//DTD SVG 1.1//EN'  'http://www.w3.org/Graphics/SVG/1.1/DTD/svg11.dtd'><svg enable-background="new 0 0 512 512" height="512px" id="Layer_1" version="1.1" viewBox="0 0 512 512" width="512px" xml:space="preserve" xmlns="http://www.w3.org/2000/svg" xmlns:xlink="http://www.w3.org/1999/xlink"><path d="M492.168,442.611c0,34.171-27.703,61.872-61.873,61.872H80.551c-34.171,0-61.874-27.701-61.874-61.872  V92.866c0-34.171,27.703-61.873,61.874-61.873h349.744c34.17,0,61.873,27.701,61.873,61.873V442.611z" fill="#0A5772"/><path d="M492.168,417.867c0,34.172-27.703,61.873-61.873,61.873H80.551c-34.171,0-61.874-27.701-61.874-61.873  V68.122c0-34.171,27.703-61.872,61.874-61.872h349.744c34.17,0,61.873,27.7,61.873,61.872V417.867z" fill="#0083BE"/><path d="M492.168,417.867V303.249c-1.625-1.655-3.278-3.282-4.934-4.899c-4.139-4.193-8.336-8.33-12.497-12.502  c-16.646-16.688-33.354-33.312-50-50c-16.646-16.688-33.354-33.312-50-50c-8.323-8.344-16.677-16.656-25-25  c-3.68-3.689-7.267-7.528-11.249-10.897c-3.493-2.957-7.273-5.571-11.272-7.797c-8.708-4.849-18.372-7.783-28.239-9.044  c-10.443-1.335-21.303-1.07-31.627,1.057c-8.229,1.695-16.167,4.768-23.176,9.436c-6.282,4.184-11.68,9.549-16.222,15.559  c-6.448,8.53-11.21,18.194-15.504,27.944c-8.145-6.985-18.904-10.452-29.594-9.574c-8.89,0.729-17.387,4.468-23.964,10.487  c-10.228,9.36-15.08,23.609-12.711,37.273c-17.89,2.852-33.977,13.507-43.761,28.728c-10.604,16.494-13.126,37.457-6.798,56.019  c3.394,9.953,9.206,18.649,16.654,26.018c8.378,8.288,16.622,16.712,25,25c16.756,16.576,33.244,33.424,50,50  c16.756,16.576,33.244,33.424,50,50c6.24,6.173,12.345,12.493,18.57,18.687h174.452C464.465,479.74,492.168,452.039,492.168,417.867  z" fill="#0064A2"/><path clip-rule="evenodd" d="M418.682,289.068  c0,35.668-28.705,64.581-64.1,64.581H156.254c-35.395,0-64.094-28.913-64.094-64.581c0-32.212,23.406-58.898,54.018-63.778  c-0.393-2.265-0.602-4.587-0.602-6.981c0-22.597,18.182-40.915,40.623-40.915c10.006,0,19.174,3.644,26.248,9.711  c12.611-28.632,28.775-54.764,74.131-54.764c55.002,0,81.072,42.742,81.072,87.847c0,1.882-0.078,3.755-0.207,5.606  C396.682,231.793,418.682,257.843,418.682,289.068z" fill="#FFFFFF" fill-rule="evenodd" id="MobileMe_4_"/></svg>
